<svg xmlns="http://www.w3.org/2000/svg" xmlns:xlink="http://www.w3.org/1999/xlink" width="300" zoomAndPan="magnify" viewBox="0 0 224.87999 52.499999" height="70" preserveAspectRatio="xMidYMid meet" version="1.0"><defs><g/><clipPath id="1627f7ed4e"><path d="M 134.816406 24 L 223.761719 24 L 223.761719 33 L 134.816406 33 Z M 134.816406 24 " clip-rule="nonzero"/></clipPath></defs><g clip-path="url(#1627f7ed4e)"><path fill="#ffffff" d="M 135.402344 28.898438 C 135.15625 29.273438 134.824219 28.976562 135.035156 28.648438 C 142.851562 16.570312 147.753906 32.957031 163.464844 31.582031 C 187.65625 29.460938 207.878906 22.703125 222.933594 28.523438 C 223.980469 28.929688 223.242188 29.78125 222.359375 29.382812 C 209.832031 23.75 186.558594 29.648438 163.359375 32.039062 C 147.644531 33.65625 143.199219 17.015625 135.402344 28.898438 Z M 135.402344 28.898438 " fill-opacity="1" fill-rule="nonzero"/></g><g fill="#ffffff" fill-opacity="1"><g transform="translate(3.630915, 29.949554)"><g><path d="M 23.257812 4.1875 C 19.304688 5.652344 30.847656 -19.8125 23.238281 -18.152344 C 20.226562 -17.429688 17.9375 -12.5 16.566406 -8.859375 C 17.429688 -14.632812 17.09375 -18.738281 13.300781 -18.386719 C 10.484375 -18.171875 7.6875 -15.394531 6.984375 -11.617188 C 2.621094 -14.554688 -0.878906 -11.167969 0.507812 -7.570312 L 0.996094 -7.472656 C -0.625 -10.542969 2.269531 -14.296875 6.90625 -11.363281 C 6.140625 -6.964844 7.472656 -4.8125 8.976562 -4.714844 C 10.40625 -4.65625 12.070312 -7.804688 7.355469 -11.441406 C 7.902344 -14.90625 10.542969 -17.976562 13.320312 -18.152344 C 16.488281 -18.386719 16.488281 -15.53125 15.726562 -10.933594 C 14.53125 -3.714844 10.542969 6.492188 6.257812 6.53125 C -0.449219 6.613281 -0.761719 -4.050781 6.925781 -4.285156 C 7.238281 -3.851562 7.785156 -4.460938 7.0625 -4.597656 C -1.113281 -4.460938 -0.976562 6.847656 6.179688 6.847656 C 9.742188 6.847656 12.65625 3.148438 15.394531 -4.734375 C 19.128906 -5.222656 22.023438 -5.398438 22.964844 -5.574219 C 21.867188 -0.605469 20.324219 4.871094 23.140625 4.480469 C 25.117188 4.207031 29.046875 -1.410156 31.296875 -4.597656 C 31.296875 -4.695312 31.023438 -4.714844 30.964844 -4.617188 C 27.875 -0.3125 25.15625 3.480469 23.257812 4.1875 Z M 23.003906 -17.800781 C 27.167969 -19.207031 23.84375 -10.484375 23.023438 -5.847656 C 21.105469 -5.535156 18.152344 -5.398438 15.492188 -5.046875 C 18.308594 -13.320312 20.636719 -16.996094 23.003906 -17.800781 Z M 9.152344 -4.96875 C 8.019531 -4.910156 6.589844 -6.179688 7.238281 -11.148438 C 11.421875 -7.804688 10.074219 -5.027344 9.152344 -4.96875 Z M 9.152344 -4.96875 "/></g></g></g><g fill="#ffffff" fill-opacity="1"><g transform="translate(34.530361, 29.949554)"><g><path d="M 5.632812 -5.847656 C 3.792969 -6.023438 2.445312 -3.304688 0.761719 0.859375 C 1.054688 -1.703125 1.390625 -5.046875 1.585938 -5.828125 C 7.980469 -13.007812 6.945312 -16.742188 4.96875 -16.742188 C 1.429688 -16.742188 -0.214844 -7.023438 -0.585938 1.800781 C -0.664062 2.582031 0.371094 2.796875 0.722656 1.800781 C 2.132812 -2.171875 3.890625 -5.789062 5.574219 -5.574219 C 6.472656 -5.457031 6.082031 -1.527344 5.4375 0.917969 C -0.371094 2.269531 -0.0390625 5.476562 1.152344 5.945312 C 1.917969 6.238281 5.359375 5.28125 6.632812 0.859375 C 8.625 0.332031 10.679688 -1.683594 12.675781 -4.597656 C 12.675781 -4.695312 12.402344 -4.695312 12.34375 -4.617188 C 10.796875 -2.464844 8.898438 -0.0390625 6.730469 0.507812 C 7.160156 -1.390625 7.511719 -5.671875 5.632812 -5.847656 Z M 1.644531 -6.335938 C 2.171875 -11.070312 3.597656 -16.351562 4.871094 -16.449219 C 6.53125 -16.585938 7.511719 -13.339844 1.644531 -6.335938 Z M 1.289062 5.730469 C 0.371094 5.632812 -0.078125 2.5625 5.359375 1.25 C 4.226562 4.871094 1.820312 5.789062 1.289062 5.730469 Z M 1.289062 5.730469 "/></g></g></g><g fill="#ffffff" fill-opacity="1"><g transform="translate(46.772799, 29.949554)"><g><path d="M 2.875 -7.609375 C -0.566406 -7.609375 -1.9375 0.996094 1.429688 1.429688 C 3.148438 1.644531 4.695312 -0.78125 4.96875 -2.660156 C 6.257812 -2.230469 8.078125 -2.679688 9.449219 -4.597656 C 9.449219 -4.695312 9.132812 -4.675781 9.054688 -4.578125 C 7.941406 -3.011719 6.21875 -2.542969 4.988281 -2.992188 C 5.164062 -4.441406 4.011719 -5.261719 3.519531 -4.695312 C 2.992188 -4.089844 3.8125 -3.070312 4.636719 -2.816406 C 4.402344 -1.09375 2.972656 1.371094 1.449219 1.171875 C -0.273438 0.957031 0.976562 -7.121094 2.855469 -7.335938 C 3.832031 -7.453125 4.089844 -6.160156 3.773438 -5.125 C 3.871094 -5.105469 3.910156 -5.125 4.03125 -5.125 C 4.382812 -6.53125 3.992188 -7.609375 2.875 -7.609375 Z M 3.714844 -4.460938 C 3.929688 -4.851562 4.773438 -4.265625 4.675781 -3.128906 C 4.207031 -3.265625 3.5 -4.050781 3.714844 -4.460938 Z M 3.714844 -4.460938 "/></g></g></g><g fill="#ffffff" fill-opacity="1"><g transform="translate(55.768841, 29.949554)"><g><path d="M 5.984375 -6.121094 C 6.121094 -6.730469 5.007812 -6.945312 4.636719 -5.847656 C 3.421875 -2.269531 2.152344 1.332031 1.269531 1.308594 C 0.0195312 1.269531 0.9375 -3.910156 1.390625 -5.984375 C 1.566406 -6.550781 0.546875 -6.886719 0.195312 -5.886719 C -0.292969 -4.519531 -1.566406 1.664062 1.269531 1.566406 C 2.464844 1.527344 3.519531 -1.800781 4.304688 -3.792969 C 3.753906 -1.230469 4.070312 0.917969 4.8125 1.566406 C 7.21875 3.675781 11.421875 -3.617188 12.460938 -4.597656 C 12.460938 -4.695312 12.207031 -4.695312 12.128906 -4.617188 C 11.382812 -3.753906 6.964844 3.070312 5.222656 1.46875 C 4.421875 0.488281 5.808594 -5.378906 5.984375 -6.121094 Z M 5.984375 -6.121094 "/></g></g></g><g fill="#ffffff" fill-opacity="1"><g transform="translate(67.796156, 29.949554)"><g><path d="M 5.242188 -10.230469 C 5.359375 -9.957031 5.710938 -10.210938 5.476562 -10.503906 C 5.046875 -11.070312 3.324219 -10.933594 2.015625 -10.582031 C 2.210938 -11.871094 2.484375 -13.28125 2.523438 -13.457031 C 2.71875 -14.355469 1.605469 -14.53125 1.308594 -13.515625 C 1.113281 -12.871094 0.859375 -11.34375 0.664062 -10.269531 C -0.371094 -9.878906 -1.410156 -9.722656 -1.78125 -10.054688 C -1.898438 -10.523438 -2.425781 -9.996094 -1.957031 -9.800781 C -1.269531 -9.46875 -0.292969 -9.625 0.625 -9.976562 C 0.0390625 -6.632812 -0.898438 -0.644531 0.175781 2.015625 C 0.566406 2.953125 1.585938 3.910156 2.660156 3.109375 C 4.734375 1.566406 6.867188 -3.1875 7.941406 -4.597656 C 7.941406 -4.695312 7.6875 -4.695312 7.609375 -4.617188 C 6.769531 -3.539062 4.246094 1.820312 2.386719 2.953125 C 1.46875 3.480469 0.957031 2.542969 0.820312 1.703125 C 0.488281 -0.371094 1.308594 -6.53125 1.976562 -10.289062 C 3.910156 -10.777344 5.046875 -10.699219 5.242188 -10.230469 Z M 5.242188 -10.230469 "/></g></g></g><g fill="#ffffff" fill-opacity="1"><g transform="translate(75.302839, 29.949554)"><g/></g></g><g fill="#ffffff" fill-opacity="1"><g transform="translate(80.191994, 29.949554)"><g/></g></g><g fill="#ffffff" fill-opacity="1"><g transform="translate(85.081148, 29.949554)"><g/></g></g><g fill="#ffffff" fill-opacity="1"><g transform="translate(89.970269, 29.949554)"><g><path d="M 23.863281 -2.738281 C 20.929688 -1.566406 25.074219 -13.027344 24.058594 -15.863281 C 23.785156 -16.625 23.199219 -16.976562 22.476562 -16.527344 C 20.1875 -15.101562 16.859375 -7.0625 14.652344 -0.742188 C 16.195312 -8.273438 18.191406 -18.367188 13.046875 -18.71875 C 9.351562 -18.972656 6.257812 -14.492188 6.277344 -9.78125 C 1.449219 -11.851562 -1.371094 -7.882812 0.644531 -4.597656 L 1.152344 -4.597656 C -0.996094 -7.316406 1.152344 -11.539062 6.238281 -9.507812 C 6.316406 -5.046875 8.019531 -3.167969 9.507812 -3.363281 C 10.914062 -3.558594 11.972656 -6.964844 6.671875 -9.683594 C 6.53125 -13.867188 9.449219 -18.816406 13.046875 -18.40625 C 19.636719 -17.664062 10.894531 3.519531 12.34375 6.847656 C 12.65625 7.570312 13.613281 7.511719 13.515625 6.632812 C 13.417969 5.75 13.769531 4.441406 14.257812 2.464844 C 16.566406 -6.710938 21.125 -15.765625 22.691406 -16.253906 C 24.351562 -16.78125 19.109375 -3.636719 23.199219 -2.25 C 25.15625 -1.585938 29.59375 -10.269531 32.214844 -14.75 C 31.863281 -8.136719 26.894531 5.398438 30.847656 6.75 C 33.097656 7.511719 38.574219 -1.210938 40.839844 -4.578125 C 40.839844 -4.675781 40.585938 -4.714844 40.507812 -4.617188 C 39.570312 -3.539062 34.523438 5.144531 31.433594 6.375 C 28.265625 7.628906 34.699219 -12.441406 33.3125 -15.121094 C 33.136719 -15.453125 32.46875 -15.726562 31.765625 -14.691406 C 30.101562 -11.914062 25.859375 -3.539062 23.863281 -2.738281 Z M 9.625 -3.636719 C 8.507812 -3.382812 6.886719 -4.363281 6.613281 -9.351562 C 11.324219 -6.828125 10.523438 -3.851562 9.625 -3.636719 Z M 9.625 -3.636719 "/></g></g></g><g fill="#ffffff" fill-opacity="1"><g transform="translate(130.432895, 29.949554)"><g><path d="M 2.425781 0.488281 C 1.25 0.820312 0.449219 -1.171875 1.113281 -4.539062 C 6.199219 -6.042969 3.929688 -9.722656 1.488281 -7.472656 C -1.074219 -5.125 -0.683594 1.015625 2.464844 0.761719 C 4.226562 0.234375 6.453125 -3.1875 7.53125 -4.597656 C 7.53125 -4.695312 7.277344 -4.695312 7.199219 -4.617188 C 6.355469 -3.539062 4.050781 0.0390625 2.425781 0.488281 Z M 1.210938 -4.871094 C 1.546875 -6.003906 2.269531 -7.980469 3.382812 -7.882812 C 4.148438 -7.746094 4.558594 -5.90625 1.210938 -4.871094 Z M 1.210938 -4.871094 "/></g></g></g></svg>