<svg xmlns="http://www.w3.org/2000/svg" xmlns:xlink="http://www.w3.org/1999/xlink" width="100" zoomAndPan="magnify" viewBox="0 0 75 30.000001" height="40" preserveAspectRatio="xMidYMid meet" version="1.0"><defs><g/></defs><g fill="#ffffff" fill-opacity="1"><g transform="translate(4.112902, 13.080081)"><g><path d="M 3.886719 -5.652344 C 3.886719 -6.460938 3.445312 -6.894531 2.644531 -6.894531 L 1.679688 -6.894531 C 0.871094 -6.894531 0.429688 -6.460938 0.429688 -5.652344 L 0.429688 -1.242188 C 0.429688 -0.429688 0.871094 0 1.679688 0 L 2.644531 0 C 3.445312 0 3.886719 -0.429688 3.886719 -1.242188 L 3.886719 -2.171875 C 3.886719 -2.257812 3.835938 -2.308594 3.75 -2.308594 L 2.886719 -2.308594 C 2.792969 -2.308594 2.75 -2.257812 2.75 -2.171875 L 2.75 -1.480469 C 2.75 -1.25 2.628906 -1.136719 2.402344 -1.136719 L 1.957031 -1.136719 C 1.730469 -1.136719 1.609375 -1.25 1.609375 -1.480469 L 1.609375 -5.410156 C 1.609375 -5.636719 1.722656 -5.753906 1.957031 -5.753906 L 2.402344 -5.753906 C 2.628906 -5.753906 2.75 -5.636719 2.75 -5.410156 L 2.75 -4.722656 C 2.75 -4.636719 2.792969 -4.582031 2.886719 -4.582031 L 3.75 -4.582031 C 3.835938 -4.582031 3.886719 -4.636719 3.886719 -4.722656 Z M 3.886719 -5.652344 "/></g></g></g><g fill="#ffffff" fill-opacity="1"><g transform="translate(8.602019, 13.080081)"><g><path d="M 2.707031 -4.015625 L 1.601562 -4.015625 L 1.601562 -6.753906 C 1.601562 -6.839844 1.550781 -6.894531 1.464844 -6.894531 L 0.578125 -6.894531 C 0.472656 -6.894531 0.429688 -6.839844 0.429688 -6.753906 L 0.429688 -0.136719 C 0.429688 -0.0507812 0.472656 0 0.578125 0 L 1.464844 0 C 1.550781 0 1.601562 -0.0507812 1.601562 -0.136719 L 1.601562 -2.878906 L 2.707031 -2.878906 L 2.707031 -0.136719 C 2.707031 -0.0507812 2.757812 0 2.84375 0 L 3.730469 0 C 3.835938 0 3.878906 -0.0507812 3.878906 -0.136719 L 3.878906 -6.753906 C 3.878906 -6.839844 3.835938 -6.894531 3.730469 -6.894531 L 2.84375 -6.894531 C 2.757812 -6.894531 2.707031 -6.839844 2.707031 -6.753906 Z M 2.707031 -4.015625 "/></g></g></g><g fill="#ffffff" fill-opacity="1"><g transform="translate(13.082524, 13.080081)"><g><path d="M 4.582031 0 C 4.6875 0 4.722656 -0.0507812 4.703125 -0.144531 L 3.273438 -6.773438 C 3.257812 -6.859375 3.207031 -6.894531 3.128906 -6.894531 L 1.929688 -6.894531 C 1.851562 -6.894531 1.800781 -6.859375 1.785156 -6.773438 L 0.351562 -0.144531 C 0.328125 -0.0507812 0.371094 0 0.464844 0 L 1.386719 0 C 1.464844 0 1.507812 -0.0429688 1.523438 -0.121094 L 1.757812 -1.378906 L 3.292969 -1.378906 L 3.53125 -0.121094 C 3.550781 -0.0429688 3.59375 0 3.671875 0 Z M 3.074219 -2.378906 L 1.972656 -2.378906 L 2.523438 -5.386719 Z M 3.074219 -2.378906 "/></g></g></g><g fill="#ffffff" fill-opacity="1"><g transform="translate(18.304029, 13.080081)"><g><path d="M 0.570312 -6.894531 C 0.472656 -6.894531 0.429688 -6.839844 0.429688 -6.753906 L 0.429688 -0.136719 C 0.429688 -0.0507812 0.472656 0 0.570312 0 L 1.464844 0 C 1.550781 0 1.601562 -0.0507812 1.601562 -0.136719 L 1.601562 -6.753906 C 1.601562 -6.839844 1.550781 -6.894531 1.464844 -6.894531 Z M 0.570312 -6.894531 "/></g></g></g><g fill="#ffffff" fill-opacity="1"><g transform="translate(20.509812, 13.080081)"><g><path d="M 0.394531 -6.894531 C 0.308594 -6.894531 0.257812 -6.839844 0.257812 -6.753906 L 0.257812 -5.894531 C 0.257812 -5.808594 0.308594 -5.753906 0.394531 -5.753906 L 1.394531 -5.753906 L 1.394531 -0.136719 C 1.394531 -0.0429688 1.449219 0 1.535156 0 L 2.429688 0 C 2.523438 0 2.566406 -0.0429688 2.566406 -0.136719 L 2.566406 -5.753906 L 3.566406 -5.753906 C 3.660156 -5.753906 3.703125 -5.808594 3.703125 -5.894531 L 3.703125 -6.753906 C 3.703125 -6.839844 3.660156 -6.894531 3.566406 -6.894531 Z M 0.394531 -6.894531 "/></g></g></g><g fill="#ffffff" fill-opacity="1"><g transform="translate(24.645658, 13.080081)"><g><path d="M 4.582031 0 C 4.6875 0 4.722656 -0.0507812 4.703125 -0.144531 L 3.273438 -6.773438 C 3.257812 -6.859375 3.207031 -6.894531 3.128906 -6.894531 L 1.929688 -6.894531 C 1.851562 -6.894531 1.800781 -6.859375 1.785156 -6.773438 L 0.351562 -0.144531 C 0.328125 -0.0507812 0.371094 0 0.464844 0 L 1.386719 0 C 1.464844 0 1.507812 -0.0429688 1.523438 -0.121094 L 1.757812 -1.378906 L 3.292969 -1.378906 L 3.53125 -0.121094 C 3.550781 -0.0429688 3.59375 0 3.671875 0 Z M 3.074219 -2.378906 L 1.972656 -2.378906 L 2.523438 -5.386719 Z M 3.074219 -2.378906 "/></g></g></g><g fill="#ffffff" fill-opacity="1"><g transform="translate(29.867163, 13.080081)"><g><path d="M 3.074219 -6.894531 C 2.980469 -6.894531 2.9375 -6.839844 2.9375 -6.753906 L 2.9375 -3.117188 L 2.886719 -3.117188 L 1.578125 -6.78125 C 1.550781 -6.859375 1.5 -6.894531 1.421875 -6.894531 L 0.570312 -6.894531 C 0.484375 -6.894531 0.429688 -6.839844 0.429688 -6.753906 L 0.429688 -0.136719 C 0.429688 -0.0507812 0.484375 0 0.570312 0 L 1.464844 0 C 1.558594 0 1.601562 -0.0507812 1.601562 -0.136719 L 1.601562 -3.792969 L 1.644531 -3.792969 L 2.964844 -0.113281 C 2.988281 -0.0351562 3.042969 0 3.117188 0 L 3.972656 0 C 4.058594 0 4.109375 -0.0507812 4.109375 -0.136719 L 4.109375 -6.753906 C 4.109375 -6.839844 4.058594 -6.894531 3.972656 -6.894531 Z M 3.074219 -6.894531 "/></g></g></g><g fill="#ffffff" fill-opacity="1"><g transform="translate(34.580313, 13.080081)"><g><path d="M 3.515625 -6.894531 C 3.410156 -6.894531 3.351562 -6.851562 3.316406 -6.753906 L 2.351562 -4.28125 L 1.386719 -6.753906 C 1.351562 -6.851562 1.292969 -6.894531 1.1875 -6.894531 L 0.328125 -6.894531 C 0.199219 -6.894531 0.136719 -6.816406 0.191406 -6.695312 L 1.765625 -2.859375 L 1.765625 -0.171875 C 1.765625 -0.0585938 1.828125 0 1.9375 0 L 2.765625 0 C 2.878906 0 2.9375 -0.0585938 2.9375 -0.171875 L 2.9375 -2.859375 L 4.515625 -6.695312 C 4.566406 -6.816406 4.507812 -6.894531 4.378906 -6.894531 Z M 3.515625 -6.894531 "/></g></g></g><g fill="#ffffff" fill-opacity="1"><g transform="translate(39.457168, 13.080081)"><g><path d="M 4.582031 0 C 4.6875 0 4.722656 -0.0507812 4.703125 -0.144531 L 3.273438 -6.773438 C 3.257812 -6.859375 3.207031 -6.894531 3.128906 -6.894531 L 1.929688 -6.894531 C 1.851562 -6.894531 1.800781 -6.859375 1.785156 -6.773438 L 0.351562 -0.144531 C 0.328125 -0.0507812 0.371094 0 0.464844 0 L 1.386719 0 C 1.464844 0 1.507812 -0.0429688 1.523438 -0.121094 L 1.757812 -1.378906 L 3.292969 -1.378906 L 3.53125 -0.121094 C 3.550781 -0.0429688 3.59375 0 3.671875 0 Z M 3.074219 -2.378906 L 1.972656 -2.378906 L 2.523438 -5.386719 Z M 3.074219 -2.378906 "/></g></g></g><g fill="#ffffff" fill-opacity="1"><g transform="translate(44.658847, 21.696375)"><g><path d="M 0.429688 -0.136719 C 0.429688 -0.0507812 0.484375 0 0.570312 0 L 1.464844 0 C 1.558594 0 1.601562 -0.0507812 1.601562 -0.136719 L 1.601562 -2.308594 L 2.636719 -2.308594 C 3.445312 -2.308594 3.878906 -2.75 3.878906 -3.550781 L 3.878906 -5.652344 C 3.878906 -6.460938 3.445312 -6.894531 2.636719 -6.894531 L 0.570312 -6.894531 C 0.484375 -6.894531 0.429688 -6.839844 0.429688 -6.753906 Z M 1.601562 -3.445312 L 1.601562 -5.753906 L 2.359375 -5.753906 C 2.59375 -5.753906 2.707031 -5.636719 2.707031 -5.410156 L 2.707031 -3.792969 C 2.707031 -3.574219 2.59375 -3.445312 2.359375 -3.445312 Z M 1.601562 -3.445312 "/></g></g></g><g fill="#ffffff" fill-opacity="1"><g transform="translate(49.139352, 21.696375)"><g><path d="M 4.582031 0 C 4.6875 0 4.722656 -0.0507812 4.703125 -0.144531 L 3.273438 -6.773438 C 3.257812 -6.859375 3.207031 -6.894531 3.128906 -6.894531 L 1.929688 -6.894531 C 1.851562 -6.894531 1.800781 -6.859375 1.785156 -6.773438 L 0.351562 -0.144531 C 0.328125 -0.0507812 0.371094 0 0.464844 0 L 1.386719 0 C 1.464844 0 1.507812 -0.0429688 1.523438 -0.121094 L 1.757812 -1.378906 L 3.292969 -1.378906 L 3.53125 -0.121094 C 3.550781 -0.0429688 3.59375 0 3.671875 0 Z M 3.074219 -2.378906 L 1.972656 -2.378906 L 2.523438 -5.386719 Z M 3.074219 -2.378906 "/></g></g></g><g fill="#ffffff" fill-opacity="1"><g transform="translate(54.360857, 21.696375)"><g><path d="M 5.144531 -6.894531 C 5.039062 -6.894531 4.972656 -6.832031 4.964844 -6.730469 L 4.609375 -2.695312 L 4.566406 -2.695312 L 3.722656 -6.738281 C 3.695312 -6.839844 3.636719 -6.894531 3.53125 -6.894531 L 3.015625 -6.894531 C 2.914062 -6.894531 2.851562 -6.839844 2.824219 -6.738281 L 1.972656 -2.695312 L 1.929688 -2.695312 L 1.59375 -6.730469 C 1.585938 -6.832031 1.515625 -6.894531 1.414062 -6.894531 L 0.59375 -6.894531 C 0.484375 -6.894531 0.421875 -6.824219 0.429688 -6.710938 L 1.136719 -0.164062 C 1.144531 -0.0507812 1.207031 0 1.316406 0 L 2.179688 0 C 2.285156 0 2.34375 -0.0507812 2.371094 -0.144531 L 3.273438 -4.050781 L 4.171875 -0.15625 C 4.195312 -0.0507812 4.257812 0 4.359375 0 L 5.203125 0 C 5.316406 0 5.375 -0.0507812 5.386719 -0.164062 L 6.125 -6.710938 C 6.136719 -6.824219 6.074219 -6.894531 5.960938 -6.894531 Z M 5.144531 -6.894531 "/></g></g></g><g fill="#ffffff" fill-opacity="1"><g transform="translate(61.090229, 21.696375)"><g><path d="M 4.582031 0 C 4.6875 0 4.722656 -0.0507812 4.703125 -0.144531 L 3.273438 -6.773438 C 3.257812 -6.859375 3.207031 -6.894531 3.128906 -6.894531 L 1.929688 -6.894531 C 1.851562 -6.894531 1.800781 -6.859375 1.785156 -6.773438 L 0.351562 -0.144531 C 0.328125 -0.0507812 0.371094 0 0.464844 0 L 1.386719 0 C 1.464844 0 1.507812 -0.0429688 1.523438 -0.121094 L 1.757812 -1.378906 L 3.292969 -1.378906 L 3.53125 -0.121094 C 3.550781 -0.0429688 3.59375 0 3.671875 0 Z M 3.074219 -2.378906 L 1.972656 -2.378906 L 2.523438 -5.386719 Z M 3.074219 -2.378906 "/></g></g></g><g fill="#ffffff" fill-opacity="1"><g transform="translate(66.311734, 21.696375)"><g><path d="M 3.972656 -5.652344 C 3.972656 -6.460938 3.542969 -6.894531 2.730469 -6.894531 L 0.570312 -6.894531 C 0.484375 -6.894531 0.429688 -6.839844 0.429688 -6.753906 L 0.429688 -0.136719 C 0.429688 -0.0507812 0.484375 0 0.570312 0 L 1.464844 0 C 1.550781 0 1.601562 -0.0507812 1.601562 -0.136719 L 1.601562 -2.308594 L 2.195312 -2.308594 L 2.773438 -0.121094 C 2.792969 -0.0429688 2.835938 0 2.921875 0 L 3.816406 0 C 3.910156 0 3.964844 -0.0507812 3.9375 -0.15625 L 3.34375 -2.414062 C 3.757812 -2.59375 3.972656 -2.972656 3.972656 -3.550781 Z M 1.601562 -3.445312 L 1.601562 -5.753906 L 2.457031 -5.753906 C 2.679688 -5.753906 2.800781 -5.636719 2.800781 -5.410156 L 2.800781 -3.792969 C 2.800781 -3.566406 2.679688 -3.445312 2.457031 -3.445312 Z M 1.601562 -3.445312 "/></g></g></g></svg>