<?xml version="1.0" standalone="no"?>
<!DOCTYPE svg PUBLIC "-//W3C//DTD SVG 20010904//EN"
 "http://www.w3.org/TR/2001/REC-SVG-20010904/DTD/svg10.dtd">
<svg version="1.0" xmlns="http://www.w3.org/2000/svg"
 width="700.000000pt" height="700.000000pt" viewBox="0 0 700.000000 700.000000"
 preserveAspectRatio="xMidYMid meet">
<metadata>
Created by potrace 1.14, written by Peter Selinger 2001-2017
</metadata>
<g transform="translate(0.000000,700.000000) scale(0.100000,-0.100000)"
fill="#000000" stroke="none">
<path d="M0 3500 l0 -3500 3500 0 3500 0 0 3500 0 3500 -3500 0 -3500 0 0
-3500z m2900 2670 c0 -19 -116 -255 -138 -280 -12 -14 -21 -20 -22 -14 0 5 9
20 20 31 21 23 134 252 127 259 -8 8 -104 -26 -138 -49 -18 -12 -44 -40 -57
-62 -19 -33 -22 -50 -18 -99 5 -54 16 -91 16 -53 0 10 5 17 11 17 6 0 8 -9 3
-22 -3 -13 -3 -20 1 -16 4 4 14 0 23 -8 8 -9 24 -13 36 -11 261 64 316 81 316
102 0 30 54 109 100 145 70 55 115 70 220 69 52 0 104 -4 114 -8 18 -7 16 -12
-27 -58 -26 -28 -74 -70 -108 -94 l-60 -44 68 -6 c48 -4 56 -6 28 -8 -22 -1
-74 -8 -115 -16 -41 -7 -115 -20 -163 -29 -95 -16 -206 -45 -222 -56 -5 -4
-29 -11 -52 -15 -42 -7 -55 -19 -30 -28 6 -3 -1 -6 -18 -6 -23 -1 -27 -4 -15
-11 8 -5 11 -10 5 -10 -5 0 6 -10 25 -22 51 -31 180 -37 233 -10 20 11 39 16
42 12 10 -17 -81 -43 -151 -42 -74 0 -109 12 -172 59 l-33 25 -70 -28 c-75
-30 -94 -44 -57 -44 40 -1 102 -36 148 -86 l45 -48 -56 51 c-34 31 -73 56 -99
64 -39 12 -46 11 -79 -8 -26 -15 -40 -18 -52 -10 -12 7 -41 -4 -122 -49 -59
-33 -107 -61 -107 -64 0 -3 25 -3 56 -2 60 4 274 -36 274 -51 0 -15 -61 -67
-102 -88 -21 -11 -66 -27 -100 -35 -102 -27 -187 -12 -310 54 -8 4 -144 -105
-252 -202 -107 -96 -260 -276 -356 -419 -44 -65 -80 -122 -80 -127 0 -12 33
-13 119 -4 60 7 61 7 61 38 0 40 32 150 58 202 20 39 74 91 149 142 17 12 34
22 37 22 11 0 6 -85 -9 -149 -20 -82 -70 -176 -110 -207 -37 -28 -47 -30 -38
-7 4 10 2 14 -5 9 -6 -3 -13 -2 -16 3 -3 5 8 7 25 6 22 -2 29 1 25 11 -3 8 0
11 9 8 18 -7 71 74 91 141 17 58 30 165 20 165 -13 0 -123 -88 -149 -119 -31
-37 -48 -85 -50 -144 -2 -39 0 -44 15 -36 11 6 19 5 24 -3 4 -6 3 -8 -3 -5
-18 11 -22 -19 -7 -42 20 -27 50 -27 194 3 159 33 167 37 175 85 10 62 57 126
117 160 116 67 255 24 321 -98 66 -120 9 -289 -117 -350 -55 -27 -134 -28
-185 -1 -48 24 -105 90 -126 144 l-16 41 -102 -24 c-56 -14 -104 -26 -105 -27
-2 -1 14 -19 36 -39 43 -38 108 -132 99 -141 -3 -3 -8 3 -11 14 -4 10 -21 32
-39 48 -48 43 -72 60 -64 47 4 -6 3 -14 -2 -17 -5 -3 -11 0 -14 8 -3 8 -14 13
-24 12 -15 -3 -18 -11 -15 -55 4 -70 19 -112 83 -225 47 -83 56 -93 67 -79 6
9 12 12 12 7 0 -6 -6 -19 -14 -29 -13 -18 -16 -16 -45 31 -17 27 -53 91 -79
143 -46 91 -47 97 -47 183 l1 88 -46 -6 c-25 -3 -73 -8 -108 -12 l-63 -7 37
-45 c31 -37 33 -41 8 -19 -16 14 -38 32 -48 40 -18 12 -19 12 -11 -1 6 -12 5
-13 -6 -2 -22 20 -27 14 -25 -30 3 -49 17 -80 55 -123 l26 -30 -28 25 c-38 33
-67 90 -70 140 -1 22 -6 40 -10 40 -4 0 -29 0 -55 0 l-48 0 -27 -55 c-15 -31
-27 -60 -27 -65 0 -6 15 -10 33 -10 38 0 75 -19 42 -21 -11 -1 -24 -2 -30 -4
-5 -1 -18 -3 -27 -3 -26 -3 -22 -17 15 -60 17 -22 11 -17 -14 10 l-47 49 -34
-83 c-55 -130 -55 -122 -3 -137 25 -7 93 -45 151 -83 79 -52 117 -85 152 -131
26 -34 68 -85 95 -113 26 -28 47 -56 47 -62 0 -14 -72 -25 -125 -19 -30 3 -24
4 23 5 34 1 62 6 62 12 0 5 -15 27 -33 47 -18 21 -55 66 -82 101 -59 77 -133
132 -208 156 -9 3 -18 5 -20 4 -1 -1 -13 4 -27 12 -24 12 -24 11 4 -19 17 -17
26 -31 21 -31 -5 0 13 -24 40 -52 28 -29 15 -19 -28 22 -42 41 -77 71 -77 66
0 -5 -7 -3 -15 4 -26 21 -16 -4 17 -45 25 -31 26 -35 7 -20 -73 62 -80 53 -17
-21 23 -27 32 -40 20 -30 -22 19 -22 19 -22 -2 0 -11 4 -23 9 -27 5 -3 24 -24
42 -48 l33 -42 -38 35 c-36 34 -96 138 -96 169 0 9 -4 22 -9 29 -5 9 -20 -26
-41 -99 -26 -91 -30 -114 -19 -117 20 -6 123 -112 152 -158 14 -21 28 -50 32
-64 3 -14 -7 0 -22 30 -35 68 -105 125 -134 110 -15 -8 -17 -7 -13 4 4 10 0
14 -12 12 -11 -2 -18 -12 -18 -29 -1 -14 1 -24 5 -21 4 2 5 -4 2 -14 -6 -25
31 -103 65 -135 34 -31 97 -64 141 -73 l33 -7 -21 41 c-29 57 -26 67 4 12 31
-57 31 -60 -2 -60 -75 0 -213 109 -228 181 -10 46 -24 23 -40 -62 -10 -54 -13
-64 -14 -37 l-1 37 -57 -58 c-48 -49 -69 -62 -123 -79 -36 -11 -84 -23 -107
-27 -38 -6 -43 -5 -43 12 0 32 99 182 159 242 36 35 83 68 128 90 l71 34 31
131 c17 72 45 169 61 216 16 46 28 85 27 86 -1 2 -40 -45 -87 -103 -47 -58
-107 -123 -135 -143 -53 -39 -294 -170 -314 -170 -30 0 4 154 61 269 55 111
139 198 234 243 62 30 78 33 159 33 50 0 100 -4 112 -8 20 -7 25 -2 53 59 16
37 30 68 30 69 0 9 -335 55 -402 55 -24 0 -28 -5 -38 -57 -21 -98 -47 -156
-92 -200 -53 -52 -76 -61 -160 -61 -63 0 -69 2 -93 30 -15 18 -25 42 -25 61 0
17 -10 51 -22 76 -27 55 -35 180 -18 261 6 30 15 84 20 120 10 67 37 140 52
140 4 0 8 6 8 14 0 8 12 24 26 35 53 42 150 17 204 -51 31 -41 86 -165 101
-230 l13 -56 81 -7 c44 -3 141 -15 215 -26 74 -11 143 -21 154 -22 13 -1 33
22 72 88 30 49 87 132 127 185 40 52 74 98 75 103 2 4 -22 -4 -53 -17 -111
-50 -238 -84 -335 -91 -52 -4 -128 -16 -169 -26 -41 -11 -78 -19 -84 -19 -15
0 2 68 30 124 30 59 111 141 177 180 143 84 304 92 446 23 36 -18 69 -34 74
-36 12 -5 3 196 -10 209 -6 6 -34 5 -84 -6 -45 -9 -90 -12 -114 -8 -99 16
-209 103 -260 204 -15 30 -38 73 -52 95 -20 33 -24 50 -21 94 3 46 9 59 34 80
17 14 34 40 37 57 17 76 131 155 231 160 28 1 67 9 87 18 51 22 80 20 141 -8
69 -31 103 -67 141 -146 28 -59 31 -74 31 -160 -1 -85 -4 -103 -33 -172 -18
-42 -50 -100 -71 -130 -32 -46 -36 -58 -29 -84 4 -17 11 -68 15 -114 l8 -82
25 20 c23 19 23 21 11 60 -18 53 -10 150 18 222 11 30 47 87 78 126 32 39 68
84 80 100 l21 29 17 -40 c26 -59 30 -149 11 -224 -9 -35 -14 -66 -12 -68 2 -2
40 22 83 54 43 32 116 80 161 107 84 49 89 55 72 72 -15 15 -30 107 -19 124 6
11 9 7 9 -15 0 -32 14 -60 28 -60 5 0 16 -8 26 -17 23 -23 27 -23 89 9 29 14
88 41 132 59 63 26 79 36 77 51 -26 154 9 243 118 298 63 32 120 44 120 25z
m-421 -162 c0 -24 -7 -65 -15 -93 -8 -30 -11 -36 -8 -15 16 109 17 143 3 135
-55 -32 -104 -75 -125 -110 -13 -22 -24 -35 -24 -30 0 24 54 87 103 120 28 19
55 35 59 35 5 0 8 -19 7 -42z m1626 -67 c256 -38 461 -103 710 -226 666 -326
1152 -946 1315 -1676 29 -127 50 -308 49 -412 l-1 -92 -18 120 c-71 462 -244
887 -509 1244 -384 520 -948 885 -1601 1035 -129 30 -114 32 55 7z m-1798 -83
c-3 -8 -6 -5 -6 6 -1 11 2 17 5 13 3 -3 4 -12 1 -19z m122 -67 c-11 -28 -28
-56 -36 -63 -8 -6 -1 15 16 49 17 33 31 67 32 74 0 9 2 10 5 2 3 -6 -5 -34
-17 -62z m1380 -8 c18 -12 20 -17 10 -23 -7 -5 -21 -3 -33 6 -40 28 -123 8
-146 -35 -27 -52 0 -132 51 -150 42 -14 58 -14 91 3 25 13 38 12 38 -4 0 -13
-52 -30 -93 -30 -74 0 -126 50 -127 123 0 55 25 95 73 118 46 21 95 18 136 -8z
m127 -15 c-16 -80 -16 -86 7 -91 12 -3 47 -9 78 -12 l56 -7 7 32 c3 18 6 44 6
57 0 15 5 23 13 20 15 -5 14 -53 -2 -169 -10 -64 -17 -88 -28 -88 -11 0 -13
11 -7 58 7 67 8 66 -81 77 -63 8 -75 1 -75 -47 0 -37 -10 -58 -26 -58 -10 0
-13 7 -10 23 3 12 10 58 16 102 15 113 18 125 35 125 11 0 14 -7 11 -22z m399
-82 c4 -20 35 -231 35 -241 0 -3 -7 -5 -15 -5 -10 0 -15 10 -15 28 0 40 -8 47
-79 66 l-63 18 -28 -27 c-16 -15 -33 -26 -40 -23 -6 2 30 51 80 110 92 108
115 121 125 74z m185 -48 c0 -29 -84 -228 -97 -228 -7 0 -13 3 -13 8 0 8 78
211 86 224 8 12 24 10 24 -4z m161 -63 c49 -25 87 -50 84 -55 -4 -6 -18 -4
-35 5 -16 8 -35 15 -43 15 -8 0 -34 -43 -60 -100 -35 -73 -51 -98 -62 -94 -12
5 -8 18 19 72 19 37 41 84 49 105 l16 37 -40 20 c-22 12 -37 25 -34 30 9 14 6
15 106 -35z m219 -270 c-10 -71 -19 -131 -19 -132 -1 -2 -5 -3 -11 -3 -5 0
-10 19 -10 43 0 40 -3 44 -57 79 l-57 37 -34 -21 c-22 -13 -37 -17 -43 -11 -7
7 30 36 107 87 150 97 149 97 124 -79z m-919 111 c550 -104 1026 -418 1333
-881 231 -346 353 -799 327 -1210 -6 -82 -7 -75 -13 90 -4 108 -15 230 -28
305 -157 909 -890 1592 -1815 1691 -214 23 -483 1 -714 -57 -52 -13 -96 -22
-98 -20 -12 11 257 76 397 96 104 14 511 5 611 -14z m1107 -215 c-1 -67 0
-121 4 -121 4 0 33 31 64 70 51 61 74 77 74 50 0 -16 -152 -191 -163 -187 -8
2 -11 46 -9 133 l3 129 -28 -30 c-15 -17 -45 -50 -66 -75 -26 -30 -40 -41 -48
-33 -7 7 14 39 72 107 52 63 85 94 91 88 6 -6 8 -61 6 -131z m212 -73 c0 -13
-9 -51 -19 -85 -22 -73 -26 -70 76 -51 42 7 67 8 73 2 7 -7 -22 -16 -82 -28
-75 -15 -99 -25 -125 -49 -45 -42 -62 -25 -20 22 24 27 39 59 56 124 23 83 41
112 41 65z m-1695 -77 c37 -21 71 -71 87 -125 16 -54 15 -197 -1 -266 -16 -68
-82 -209 -110 -234 -40 -37 -41 -3 -2 57 68 102 111 280 89 367 -11 43 -57 90
-88 90 -28 0 -189 -85 -255 -135 -309 -233 -550 -639 -675 -1135 -52 -210 -62
-276 -58 -389 5 -132 28 -192 100 -256 63 -56 128 -78 217 -73 108 6 283 97
456 239 75 61 242 229 267 269 9 14 30 83 48 154 40 164 103 352 126 377 35
39 75 19 123 -61 28 -47 26 -77 -14 -203 -19 -59 -37 -124 -41 -145 -6 -35 -4
-33 42 35 136 202 291 343 377 343 121 0 182 -110 157 -283 -20 -137 -106
-361 -174 -452 -39 -52 -41 -59 -17 -46 47 25 221 163 303 240 85 80 108 94
108 68 0 -15 -124 -131 -245 -228 -261 -210 -444 -256 -510 -129 -20 38 -19
123 1 191 20 70 63 149 81 149 19 0 16 -14 -11 -68 -45 -89 -67 -192 -50 -236
10 -26 41 -18 85 21 125 113 254 384 273 573 9 88 -2 124 -38 128 -46 6 -82
-16 -156 -94 -115 -122 -197 -242 -252 -371 -66 -153 -138 -707 -160 -1226
-11 -255 -14 -290 -30 -307 -39 -42 -115 -14 -149 53 -21 40 -22 50 -15 242
12 374 74 936 131 1191 6 25 -2 19 -59 -43 -304 -330 -726 -520 -959 -433
-237 89 -287 363 -157 863 43 167 94 306 169 462 120 249 227 400 398 566 240
232 466 332 588 260z m1933 -193 c11 -15 -117 -250 -133 -244 -11 4 -11 9 6
52 11 28 9 34 -27 83 -37 49 -41 52 -78 49 -22 -2 -41 2 -43 8 -2 7 43 21 119
37 150 30 143 30 156 15z m196 -319 c14 -33 26 -72 26 -85 0 -33 -51 -84 -83
-84 -34 0 -79 40 -102 89 -17 40 -18 40 -46 26 -35 -19 -49 -19 -49 -1 0 10
197 114 221 116 4 0 18 -27 33 -61z m-4253 -76 c13 -16 12 -17 -3 -4 -10 7
-18 15 -18 17 0 8 8 3 21 -13z m506 -85 c-2 -18 -4 -6 -4 27 0 33 2 48 4 33 2
-15 2 -42 0 -60z m-460 -30 c-3 -8 -6 -5 -6 6 -1 11 2 17 5 13 3 -3 4 -12 1
-19z m3 -30 c0 -5 -13 -2 -30 7 -16 9 -30 17 -30 19 0 3 14 -1 30 -7 17 -6 30
-15 30 -19z m4267 -45 c28 -3 54 -11 57 -18 3 -8 -40 -57 -96 -111 -62 -60
-103 -93 -106 -85 -2 7 7 25 21 39 l25 27 -23 65 c-19 58 -25 65 -54 71 -18 4
-38 12 -44 19 -12 13 81 10 220 -7z m-4456 -100 c13 -16 12 -17 -3 -4 -10 7
-18 15 -18 17 0 8 8 3 21 -13z m-31 -48 l35 -40 -33 30 c-19 17 -38 39 -44 50
-6 11 -7 16 -2 10 5 -5 25 -28 44 -50z m4605 -55 c3 -5 -17 -22 -44 -37 -28
-15 -74 -41 -103 -57 l-53 -30 40 -7 c22 -4 72 -12 112 -19 42 -7 74 -17 77
-25 3 -10 -27 -31 -96 -68 -113 -61 -113 -58 20 -78 83 -13 147 -39 92 -38
-14 0 -74 8 -135 17 -97 15 -110 19 -110 37 0 15 24 33 92 70 50 27 90 51 89
53 -2 2 -50 11 -107 20 -89 15 -104 20 -107 37 -2 16 19 31 105 77 118 62 119
62 128 48z m-4525 -147 c0 -7 -39 17 -46 28 -3 6 5 3 20 -6 14 -10 26 -19 26
-22z m137 -49 c-3 -3 -12 -4 -19 -1 -8 3 -5 6 6 6 11 1 17 -2 13 -5z m4436
-321 c9 -3 17 -13 17 -22 0 -13 -35 -34 -122 -74 -68 -32 -126 -57 -130 -57
-5 0 -8 6 -8 14 0 8 16 20 35 26 l35 12 0 74 0 74 -35 14 c-19 8 -35 22 -35
30 0 11 28 2 113 -36 61 -27 120 -53 130 -55z m-4499 -165 c11 -41 6 -128 -8
-163 -21 -50 -69 -77 -129 -72 -86 7 -125 69 -127 199 l0 47 93 4 c50 1 108 4
128 5 30 2 38 -2 43 -20z m4394 -42 c57 -8 106 -17 109 -20 13 -13 -17 -139
-38 -162 -33 -36 -83 -32 -120 8 l-30 31 -39 -22 c-32 -18 -40 -19 -40 -7 0 8
19 25 43 38 37 20 42 28 45 62 4 42 -8 56 -45 56 -14 0 -23 6 -23 15 0 18 7
18 138 1z m-4271 -128 c-2 -13 -4 -3 -4 22 0 25 2 35 4 23 2 -13 2 -33 0 -45z
m4040 -50 c-2 -13 -4 -3 -4 22 0 25 2 35 4 23 2 -13 2 -33 0 -45z m-3981 -240
c120 -474 423 -902 838 -1179 613 -412 1395 -460 2058 -129 57 29 98 47 92 40
-6 -6 -71 -41 -145 -79 -470 -237 -1025 -277 -1534 -109 -104 34 -330 141
-425 200 -459 289 -789 752 -904 1269 -14 63 -27 143 -30 179 l-6 65 15 -79
c8 -43 27 -123 41 -178z m-521 -133 c137 -481 417 -934 773 -1251 506 -453
1119 -690 1797 -695 138 -1 152 -3 105 -11 -81 -15 -459 -14 -575 1 -379 48
-748 181 -1048 377 -448 293 -789 712 -982 1204 -73 188 -137 470 -150 665
l-5 80 24 -120 c13 -67 40 -179 61 -250z m4492 303 c-3 -8 -6 -5 -6 6 -1 11 2
17 5 13 3 -3 4 -12 1 -19z m-4117 -73 c15 -96 15 -98 2 -103 -6 -2 -16 31 -23
73 l-13 77 -29 -6 c-16 -3 -36 -6 -44 -6 -13 0 -14 -10 -8 -57 4 -31 9 -62 12
-70 3 -7 -2 -13 -11 -13 -9 0 -16 7 -16 15 0 7 -5 37 -11 64 l-11 51 -41 -6
c-23 -4 -44 -8 -46 -10 -2 -2 1 -36 8 -75 9 -48 10 -74 3 -81 -12 -12 -16 -1
-33 100 -7 39 -9 75 -6 78 4 4 59 17 124 29 65 13 121 23 124 24 3 0 12 -37
19 -84z m4840 -105 c0 -5 -7 -7 -15 -4 -8 4 -15 8 -15 10 0 2 7 4 15 4 8 0 15
-4 15 -10z m-80 -21 c-53 -24 -77 -44 -97 -82 -17 -34 -28 -111 -15 -103 6 3
9 -2 8 -11 -1 -21 18 -27 35 -11 8 7 23 20 34 28 20 15 20 14 1 -8 -11 -12
-38 -34 -62 -49 -39 -25 -42 -30 -48 -82 -4 -31 -15 -99 -26 -151 -11 -52 -18
-95 -16 -97 2 -2 20 24 41 58 21 34 51 76 67 95 31 35 180 144 198 144 5 0 9
-17 9 -37 -2 -31 -3 -33 -6 -10 -2 15 -7 27 -10 27 -3 0 -40 -25 -83 -55 -91
-64 -134 -114 -157 -182 -9 -26 -20 -53 -24 -59 -5 -6 -3 -11 6 -11 8 0 12 4
10 8 -3 3 2 12 10 19 8 7 15 9 15 4 0 -4 15 5 33 21 17 17 8 4 -22 -27 -62
-65 -78 -101 -33 -72 l27 17 -19 -21 c-17 -20 -10 -33 8 -15 3 4 13 8 21 10 8
2 21 4 28 6 21 4 81 58 107 96 13 19 34 62 47 95 13 34 21 48 18 31 -11 -57
-63 -153 -105 -193 -53 -52 -114 -76 -178 -70 l-49 5 -16 -49 c-11 -36 -12
-50 -4 -53 21 -7 180 -25 224 -25 39 0 43 2 43 25 0 14 8 29 20 35 16 9 19 8
14 -7 -4 -13 0 -12 12 5 22 30 55 28 85 -5 l24 -26 -31 22 c-17 13 -37 19 -46
16 -17 -7 -54 -55 -42 -55 4 0 1 -7 -6 -15 -10 -12 -9 -15 6 -15 11 0 15 -4 9
-8 -5 -4 -11 -14 -13 -24 -3 -21 34 -84 55 -92 21 -8 63 19 64 42 0 11 2 12 6
4 8 -19 -25 -62 -48 -62 -11 0 -29 5 -40 11 -19 10 -19 9 -5 -26 9 -20 11 -33
6 -30 -25 16 -6 -22 30 -57 36 -37 44 -40 78 -35 34 6 35 5 18 -8 -30 -22 -61
-18 -97 12 -35 29 -83 125 -94 187 -4 21 -13 39 -19 41 -6 2 -58 9 -116 14
-58 6 -121 14 -141 17 l-35 6 -34 -76 c-18 -42 -50 -106 -72 -142 -21 -37 -37
-69 -35 -71 3 -2 42 15 88 37 45 22 94 40 108 39 20 0 16 -3 -17 -14 -49 -15
-86 -38 -124 -76 l-27 -26 22 -11 22 -11 -22 0 c-23 -1 -32 -10 -38 -40 -3
-16 6 -20 53 -29 31 -6 74 -9 96 -7 76 8 160 77 206 170 11 22 20 34 20 27 0
-26 -43 -95 -86 -139 -90 -89 -204 -112 -303 -60 l-54 27 5 -80 c3 -44 7 -83
10 -86 4 -3 15 -1 25 4 10 6 41 13 68 16 28 3 41 3 30 0 -47 -12 -50 -14 -36
-24 8 -4 19 -7 25 -6 6 2 7 1 3 -2 -4 -2 0 -11 10 -19 17 -13 16 -13 -4 -4
-33 17 -52 12 -21 -5 30 -16 69 -89 67 -126 -1 -19 -2 -18 -8 7 -15 60 -52
102 -107 119 -18 6 -25 0 -43 -37 -23 -48 -26 -61 -11 -52 6 3 5 -6 -2 -21
l-13 -27 -6 24 c-5 20 -7 17 -13 -18 -4 -24 -13 -46 -18 -49 -7 -5 -9 3 -6 20
4 19 2 24 -5 17 -6 -6 -10 -43 -10 -84 1 -117 55 -217 118 -217 29 0 38 12 64
80 25 65 27 102 7 94 -22 -8 -83 22 -96 48 -12 21 -10 21 17 -4 19 -18 40 -28
60 -28 34 0 50 15 63 57 7 25 8 26 9 5 1 -13 -4 -33 -10 -44 -20 -38 4 -42 71
-12 66 30 80 46 80 95 0 18 3 29 7 25 13 -13 1 -81 -18 -102 -18 -19 -26 -54
-13 -54 10 0 49 23 57 34 6 7 7 6 5 -4 -3 -8 -19 -24 -36 -35 -17 -11 -34 -27
-37 -36 -3 -9 -18 -22 -33 -28 -31 -13 -90 -81 -70 -81 26 0 93 46 115 79 13
19 23 29 23 24 0 -41 -98 -122 -147 -123 -12 0 -34 -7 -50 -17 -34 -19 -64
-14 -113 19 -101 69 -119 282 -36 433 15 29 20 49 15 70 -4 17 -7 56 -8 88 -1
59 -12 72 -31 37 -8 -14 -8 -31 0 -58 5 -20 10 -48 9 -62 0 -22 -2 -21 -14 10
-7 19 -14 28 -15 20 -1 -9 -5 -6 -11 8 -9 24 -9 23 -44 -18 -19 -23 -35 -43
-35 -45 0 -1 -5 -27 -10 -56 -12 -61 -4 -143 15 -163 8 -7 10 -18 5 -26 -24
-39 -50 119 -32 198 5 23 7 42 4 42 -3 0 -30 -24 -61 -52 -31 -29 -76 -69
-101 -89 -40 -32 -43 -38 -31 -53 11 -12 11 -20 3 -28 -8 -8 -13 -7 -18 5 -9
26 -23 21 -118 -35 -66 -38 -85 -55 -81 -67 4 -9 8 -27 9 -41 2 -14 1 -19 -1
-11 -3 8 -12 21 -19 29 -12 12 -17 11 -35 -10 -19 -22 -20 -22 -10 -1 6 12 11
24 11 26 0 4 -108 -33 -187 -64 -15 -5 -23 -17 -23 -32 0 -28 -43 -91 -88
-129 -44 -37 -172 -52 -172 -21 0 4 28 7 62 5 97 -4 156 42 164 128 2 22 3 40
1 40 -1 0 -17 -4 -35 -9 -17 -5 -32 -6 -32 -1 0 5 47 23 105 41 57 18 102 36
99 40 -3 5 -12 9 -20 9 -17 0 -107 50 -101 56 2 2 30 -10 63 -26 52 -27 63
-29 92 -19 33 11 41 24 20 33 -7 2 -3 4 9 2 12 -1 25 -5 29 -9 4 -3 30 6 58
20 44 22 48 27 31 34 -15 6 -16 8 -4 8 9 1 22 8 29 16 9 11 16 12 25 5 9 -7
31 4 78 38 37 26 67 50 67 53 0 3 -14 4 -31 1 -35 -5 -179 18 -179 29 0 5 10
18 23 31 12 13 16 16 8 6 -9 -11 -11 -22 -5 -26 16 -15 132 -33 161 -26 37 9
85 43 78 55 -4 5 -1 9 5 9 6 0 8 5 5 10 -6 10 5 13 41 11 50 -4 294 320 386
514 l28 60 -36 3 c-72 6 -84 -2 -85 -61 -1 -29 -4 -40 -6 -24 -3 16 -9 25 -15
21 -6 -4 -8 -2 -4 4 3 6 -1 18 -11 27 -20 20 -59 16 -158 -17 -61 -19 -65 -23
-71 -57 -15 -82 -78 -151 -139 -151 -43 0 -91 28 -121 71 -95 137 27 360 162
295 34 -16 94 -96 94 -124 0 -8 6 -12 13 -9 6 2 38 13 69 22 l57 18 -40 44
c-42 46 -47 72 -6 37 27 -25 63 -26 61 -1 -1 9 3 17 8 17 7 0 8 -17 3 -46 -6
-45 -6 -46 17 -41 13 3 44 9 71 12 26 4 47 10 47 13 0 3 -8 14 -17 25 -17 19
-17 19 5 8 12 -6 31 -15 42 -21 11 -5 33 -10 50 -10 27 0 33 6 50 46 11 25 20
47 20 49 0 1 -15 6 -32 10 -29 6 -30 8 -13 15 11 4 23 6 28 3 12 -7 8 11 -9
37 -11 18 -9 17 10 -5 l25 -29 10 25 c5 14 16 49 25 77 l15 52 -36 15 c-94 39
-167 108 -278 262 -14 19 10 33 56 33 38 0 125 -26 134 -41 3 -4 -11 -1 -32 7
-38 16 -126 24 -138 13 -10 -11 115 -169 154 -194 40 -26 98 -45 88 -28 -4 6
0 14 9 17 8 3 13 2 10 -2 -2 -4 8 -8 24 -7 28 0 29 2 44 80 l15 80 -24 18
c-38 29 -91 107 -119 176 -14 36 -26 66 -26 68 0 2 10 2 23 2 15 -1 17 -3 6
-6 -15 -4 -14 -12 10 -70 43 -110 123 -169 134 -100 9 52 20 91 28 102 5 5 21
25 35 43 27 33 87 71 114 71 8 0 -5 -9 -30 -20z m-4728 -61 c22 -25 41 -93 33
-119 -10 -30 -22 -14 -28 38 -5 44 -32 83 -57 83 -26 0 -40 -35 -40 -97 0 -75
-16 -103 -60 -103 -51 0 -97 74 -88 144 5 51 28 44 28 -9 0 -62 23 -105 56
-105 30 0 42 28 37 85 -3 22 0 52 6 68 19 48 78 56 113 15z m76 -222 c-22 -17
-240 -91 -244 -84 -10 16 5 25 126 71 92 36 116 42 118 30 2 -8 2 -16 0 -17z
m4429 -69 c8 -16 12 -31 9 -34 -3 -3 -9 3 -12 13 -4 10 -25 42 -48 69 l-40 50
38 -35 c21 -19 44 -48 53 -63z m340 -29 c-3 -7 -5 -2 -5 12 0 14 2 19 5 13 2
-7 2 -19 0 -25z m-4737 -13 c45 -23 89 -111 74 -149 -9 -23 -33 -20 -27 3 9
34 -17 91 -51 112 -49 30 -92 25 -132 -15 -38 -38 -44 -77 -20 -125 26 -49 40
-55 84 -32 34 17 41 18 46 6 7 -19 -67 -58 -95 -50 -31 10 -71 71 -76 118 -12
107 100 182 197 132z m4410 -15 c0 8 3 11 6 7 3 -3 2 -12 -3 -21 -7 -13 -11
-12 -22 7 -13 20 -13 21 2 8 14 -11 17 -11 17 -1z m-463 -152 c-3 -8 -6 -5 -6
6 -1 11 2 17 5 13 3 -3 4 -12 1 -19z m897 -14 c9 -8 16 -18 16 -22 0 -3 -5 -1
-12 6 -7 7 -19 12 -27 12 -12 0 -12 -3 -3 -12 7 -7 12 -16 12 -20 0 -4 -9 1
-20 12 -11 11 -28 20 -39 20 -27 0 -68 -36 -91 -78 -10 -21 -19 -30 -20 -21 0
25 57 98 82 103 55 12 64 14 75 15 6 0 19 -6 27 -15z m-4700 -50 c0 -5 -16
-60 -34 -122 -18 -61 -31 -114 -28 -117 3 -3 40 18 82 47 55 37 79 49 87 41 8
-8 -19 -32 -98 -86 -64 -45 -112 -72 -117 -67 -6 6 5 58 27 131 21 67 35 124
33 127 -3 2 -41 -21 -85 -53 -69 -48 -82 -54 -88 -39 -3 9 0 20 8 25 8 4 52
35 99 67 78 55 116 71 114 46z m4406 2 c0 -2 -8 -10 -17 -17 -16 -13 -17 -12
-4 4 13 16 21 21 21 13z m-603 -58 c-3 -8 -6 -5 -6 6 -1 11 2 17 5 13 3 -3 4
-12 1 -19z m937 6 c3 -8 2 -12 -4 -9 -6 3 -10 10 -10 16 0 14 7 11 14 -7z
m-19 -25 c11 -17 -1 -21 -15 -4 -8 9 -8 15 -2 15 6 0 14 -5 17 -11z m-208 -31
c-3 -7 -5 -2 -5 12 0 14 2 19 5 13 2 -7 2 -19 0 -25z m180 -35 c-3 -10 -5 -2
-5 17 0 19 2 27 5 18 2 -10 2 -26 0 -35z m70 -20 c-3 -10 -5 -4 -5 12 0 17 2
24 5 18 2 -7 2 -21 0 -30z m-30 -45 c-2 -13 -4 -3 -4 22 0 25 2 35 4 23 2 -13
2 -33 0 -45z m-55 -2 c7 4 8 2 4 -4 -4 -6 -1 -22 5 -34 11 -20 11 -22 -3 -10
-13 10 -17 10 -21 0 -3 -7 -5 5 -5 27 0 22 2 34 5 27 2 -6 10 -9 15 -6z
m-4450 -83 c73 -82 65 -108 -9 -29 l-54 58 -35 -27 c-39 -30 -41 -25 29 -101
19 -21 25 -34 18 -39 -7 -3 -30 14 -54 41 l-44 48 -37 -29 c-41 -31 -43 -25
33 -107 24 -26 32 -41 25 -48 -7 -7 -30 11 -72 59 l-62 69 93 85 c50 48 97 86
102 86 6 0 36 -30 67 -66z m4535 30 c-3 -10 -5 -4 -5 12 0 17 2 24 5 18 2 -7
2 -21 0 -30z m-14 -10 c5 -25 3 -33 -8 -33 -8 0 -15 -4 -15 -10 0 -5 -5 -10
-12 -10 -6 0 -4 7 5 18 10 10 17 31 17 47 0 35 5 30 13 -12z m-784 -12 c-12
-16 -30 -53 -40 -83 -10 -29 -18 -44 -18 -33 -1 25 34 103 56 127 25 28 26 21
2 -11z m480 -118 c-1 -19 -3 -22 -6 -10 -3 12 -10 16 -20 13 -40 -16 -103 -27
-124 -23 -18 3 -15 5 11 6 19 1 55 10 80 21 60 24 60 24 59 -7z m288 -20 c-3
-10 -5 -2 -5 17 0 19 2 27 5 18 2 -10 2 -26 0 -35z m-4340 -36 c45 -46 53 -60
53 -91 0 -49 -36 -86 -83 -86 -37 0 -47 -15 -47 -74 0 -23 -3 -26 -14 -17 -9
8 -12 26 -8 62 4 47 3 52 -29 79 l-34 29 -27 -32 c-20 -24 -30 -29 -39 -20 -9
9 8 34 72 107 46 53 88 96 93 96 5 0 33 -24 63 -53z m3521 -57 c3 0 22 15 42
33 l35 32 -30 -33 c-17 -19 -38 -38 -47 -43 -16 -9 -18 -4 -16 43 1 50 2 51 5
11 2 -24 7 -43 11 -43z m239 -36 c-3 -3 -12 -4 -19 -1 -8 3 -5 6 6 6 11 1 17
-2 13 -5z m-40 -30 c-3 -3 -12 -4 -19 -1 -8 3 -5 6 6 6 11 1 17 -2 13 -5z m20
-20 c-3 -3 -12 -4 -19 -1 -8 3 -5 6 6 6 11 1 17 -2 13 -5z m-4 -21 c-7 -2 -19
-2 -25 0 -7 3 -2 5 12 5 14 0 19 -2 13 -5z m-3412 -17 c0 -10 -280 -226 -293
-226 -23 0 5 27 137 130 130 101 157 117 156 96z m2284 -22 c33 -13 60 -103
35 -119 -19 -12 -10 -22 35 -39 25 -10 45 -22 45 -27 0 -13 -16 -11 -70 8 -46
16 -48 16 -84 -6 l-36 -23 20 -33 c24 -39 25 -45 6 -45 -8 0 -44 48 -80 108
-64 106 -65 107 -44 122 71 51 131 70 173 54z m-2133 -113 c118 -53 149 -119
101 -213 -17 -34 -61 -58 -108 -58 -39 0 -169 54 -163 68 8 21 103 232 105
232 0 0 30 -13 65 -29z m1830 -35 c-37 -16 -68 -31 -70 -32 -3 -2 29 -84 33
-84 1 0 28 12 60 26 35 16 60 23 66 17 6 -6 -14 -20 -51 -38 -33 -16 -60 -30
-60 -32 0 -6 32 -83 35 -83 1 0 33 14 70 31 44 20 71 27 77 21 7 -7 -16 -23
-67 -46 -43 -20 -83 -36 -90 -36 -10 0 -121 229 -113 234 2 1 39 18 83 38 53
24 82 32 87 25 4 -6 -20 -23 -60 -41z m1354 -38 c4 -7 3 -8 -4 -4 -7 4 -12 2
-12 -5 0 -7 -3 -10 -6 -6 -6 5 3 27 11 27 2 0 7 -5 11 -12z m-2873 -48 c47
-14 77 -28 77 -36 0 -17 8 -18 -70 6 -36 11 -70 20 -76 20 -10 0 -22 -38 -25
-74 0 -5 27 -18 60 -28 34 -10 61 -23 61 -28 0 -14 -17 -12 -74 5 -64 20 -62
20 -75 -16 -18 -52 -15 -57 64 -81 50 -16 72 -27 67 -35 -10 -16 -177 38 -176
58 3 38 70 239 79 236 5 -2 45 -14 88 -27z m1358 -9 c59 -59 26 -133 -72 -162
l-40 -12 7 -45 c13 -84 -19 -41 -58 79 -20 63 -37 117 -37 121 -1 9 116 47
147 47 13 1 37 -12 53 -28z m-1235 -29 c6 -4 22 -52 34 -107 12 -55 26 -106
30 -114 5 -10 20 5 51 50 80 119 95 137 107 130 8 -5 -15 -46 -69 -124 -44
-64 -84 -117 -88 -117 -18 0 -30 30 -56 145 -15 66 -30 126 -32 133 -6 13 6
16 23 4z m946 -39 c54 -27 77 -105 49 -168 -59 -132 -264 -89 -264 56 0 106
112 165 215 112z m1118 -8 c13 -14 21 -25 18 -25 -2 0 -15 11 -28 25 -13 14
-21 25 -18 25 2 0 15 -11 28 -25z m649 -30 c0 -5 -4 -3 -9 5 -5 8 -9 22 -9 30
0 16 17 -16 18 -35z m-2311 25 c40 0 52 -3 52 -16 0 -13 -10 -14 -71 -8 -79 8
-89 2 -89 -52 l0 -31 70 -7 c39 -4 70 -11 70 -17 0 -5 -31 -9 -70 -9 -66 0
-70 -1 -70 -22 0 -13 -3 -33 -6 -45 -6 -20 -2 -22 75 -29 62 -5 81 -10 81 -21
0 -11 -7 -14 -22 -9 -13 3 -56 6 -96 6 l-73 0 6 93 c3 50 8 112 11 136 l6 43
36 -6 c20 -3 61 -6 90 -6z m143 -7 c1 -5 4 -57 8 -118 l6 -110 73 3 c60 3 72
1 72 -12 0 -13 -15 -16 -90 -16 l-90 0 0 84 c0 46 -3 104 -6 130 -6 38 -4 46
10 46 9 0 17 -3 17 -7z m1725 -64 c-9 -19 -15 -29 -16 -22 0 15 22 64 27 60 2
-2 -3 -19 -11 -38z m-19 -86 c-3 -10 -5 -2 -5 17 0 19 2 27 5 18 2 -10 2 -26
0 -35z m28 -72 l30 23 -20 -23 c-11 -13 -28 -27 -37 -32 -16 -9 -18 -5 -17 38
l2 48 6 -38 6 -39 30 23z m-540 -1 c-3 -5 -25 -9 -48 -9 -40 1 -40 2 -12 9 44
11 67 11 60 0z m-128 -16 c-3 -3 -12 -4 -19 -1 -8 3 -5 6 6 6 11 1 17 -2 13
-5z m483 -68 c0 -3 -14 -14 -30 -26 -35 -25 -90 -43 -90 -29 0 5 8 9 18 9 9 0
35 11 57 24 46 28 45 27 45 22z"/>
<path d="M3291 6158 c-48 -13 -99 -50 -127 -92 -14 -20 -22 -36 -18 -36 3 0 0
-8 -7 -17 -13 -17 -12 -17 7 0 20 17 21 17 20 -7 -1 -14 -6 -29 -10 -33 -5 -5
-6 -2 -1 6 5 10 4 12 -4 7 -6 -4 -9 -11 -6 -16 7 -12 47 -9 64 4 11 8 13 8 7
-2 -8 -13 18 -12 59 4 63 24 231 165 220 185 -8 12 -160 10 -204 -3z"/>
<path d="M1553 6110 c-24 -10 -43 -23 -43 -27 0 -4 12 -14 28 -21 23 -11 29
-10 39 5 7 10 22 28 34 41 20 20 20 22 3 22 -11 0 -38 -9 -61 -20z"/>
<path d="M1640 6097 c-14 -7 -37 -35 -51 -62 -14 -28 -33 -63 -42 -80 -9 -16
-17 -40 -17 -52 0 -19 5 -23 34 -23 46 0 85 -16 119 -48 38 -36 55 -70 71
-145 8 -36 14 -50 15 -34 1 15 6 27 11 27 6 0 10 8 10 18 0 10 4 22 9 28 5 5
12 23 14 39 3 17 4 3 3 -30 l-3 -60 16 35 c21 47 19 181 -3 240 -43 115 -123
178 -186 147z m157 -349 c-3 -7 -5 -2 -5 12 0 14 2 19 5 13 2 -7 2 -19 0 -25z"/>
<path d="M1425 6086 c-62 -20 -99 -42 -133 -80 -29 -34 -48 -73 -39 -82 9 -9
35 8 45 30 6 15 27 29 55 39 25 8 64 34 86 56 56 56 55 59 -14 37z"/>
<path d="M1441 6021 c-14 -19 -39 -36 -72 -46 -53 -18 -69 -40 -69 -92 0 -20
4 -24 18 -18 68 29 134 44 156 35 27 -10 36 -5 36 22 0 11 11 39 25 62 l25 43
-25 11 c-43 20 -72 14 -94 -17z"/>
<path d="M1224 5886 c-17 -8 -34 -21 -38 -31 -11 -29 -7 -90 7 -110 13 -16 15
-14 21 23 4 30 14 48 36 64 18 13 30 31 30 45 0 26 -12 28 -56 9z"/>
<path d="M1335 5847 c-85 -34 -105 -55 -105 -113 0 -89 84 -210 182 -258 40
-20 66 -26 112 -25 l61 1 -40 13 c-22 8 -31 14 -21 14 14 1 7 9 -25 30 -24 17
-56 43 -69 58 l-25 28 30 -26 c43 -38 78 -58 116 -69 28 -7 31 -7 15 3 -65 42
-81 54 -82 62 0 6 -9 28 -19 50 -35 80 -32 157 9 218 20 30 22 36 9 41 -30 12
-70 4 -148 -27z"/>
<path d="M1530 5847 c-55 -27 -79 -150 -44 -220 20 -39 64 -88 74 -82 4 3 13
-2 20 -10 7 -8 19 -15 27 -15 13 0 13 3 2 18 -7 9 -2 7 12 -5 37 -33 44 -28
19 15 l-22 37 28 -30 27 -30 -5 35 c-6 34 -6 34 5 8 6 -16 15 -28 19 -28 5 0
6 12 2 28 -14 62 -13 65 6 27 l20 -40 -6 45 c-3 28 -2 40 4 32 6 -9 9 3 10 33
4 84 -49 166 -117 185 -46 13 -51 12 -81 -3z"/>
<path d="M1942 5712 c-19 -26 -51 -69 -71 -95 -49 -62 -63 -110 -56 -189 6
-61 15 -92 15 -49 0 12 4 20 9 17 5 -4 12 0 14 6 3 7 3 -1 0 -18 -6 -36 15
-58 24 -25 3 11 9 18 14 15 5 -3 13 5 18 18 6 13 10 17 10 9 1 -9 8 -5 21 10
11 13 24 29 29 35 23 27 43 114 43 184 1 72 -13 130 -29 130 -5 0 -23 -22 -41
-48z"/>
<path d="M2293 5568 c-18 -6 -33 -15 -33 -19 0 -5 -7 -9 -15 -9 -8 0 -15 -4
-15 -10 0 -5 -8 -10 -17 -10 -15 0 -16 -2 -3 -10 8 -5 11 -10 5 -11 -5 -1 8
-5 30 -9 40 -8 40 -8 -8 -5 -26 1 -50 -2 -53 -6 -3 -5 14 -10 38 -11 l43 -1
-45 -7 -45 -7 45 -2 c38 -3 41 -4 20 -11 -14 -4 -20 -8 -15 -9 6 -1 37 -6 70
-11 76 -13 149 1 227 42 53 28 97 64 87 71 -2 2 -49 13 -104 25 -107 24 -161
26 -212 10z"/>
<path d="M1439 5286 c-3 -3 -34 -7 -70 -9 -86 -4 -181 -49 -255 -119 -84 -79
-147 -199 -96 -184 46 14 115 25 192 31 102 8 193 29 238 56 18 10 41 19 50
19 14 0 14 2 3 9 -10 6 -5 11 20 16 20 5 28 10 19 13 -10 3 -3 10 20 18 28 10
30 13 12 13 -13 1 -21 4 -18 9 2 4 -14 6 -37 5 -33 -1 -28 1 23 11 l65 14 -65
2 -65 3 75 11 75 11 -90 6 c-53 3 -71 6 -45 8 25 1 63 6 85 10 38 8 37 9 -25
11 -56 2 -60 4 -30 10 33 7 33 7 -15 9 -36 1 -46 4 -35 11 12 8 11 10 -6 10
-11 0 -23 -2 -25 -4z m24 -43 c-7 -2 -19 -2 -25 0 -7 3 -2 5 12 5 14 0 19 -2
13 -5z m-20 -60 c-7 -2 -21 -2 -30 0 -10 3 -4 5 12 5 17 0 24 -2 18 -5z m20
-30 c-7 -2 -21 -2 -30 0 -10 3 -4 5 12 5 17 0 24 -2 18 -5z m-76 -9 c-3 -3
-12 -4 -19 -1 -8 3 -5 6 6 6 11 1 17 -2 13 -5z m156 -1 c-7 -2 -21 -2 -30 0
-10 3 -4 5 12 5 17 0 24 -2 18 -5z m-56 -9 c-3 -3 -12 -4 -19 -1 -8 3 -5 6 6
6 11 1 17 -2 13 -5z m30 -20 c-3 -3 -12 -4 -19 -1 -8 3 -5 6 6 6 11 1 17 -2
13 -5z"/>
<path d="M584 5082 c-53 -42 -56 -94 -14 -206 36 -97 46 -109 60 -72 5 15 10
31 10 36 0 5 12 22 26 39 21 25 33 31 65 31 22 0 52 -8 67 -17 l27 -18 -18 28
c-9 15 -14 27 -11 27 4 0 0 8 -9 18 -19 21 -11 38 10 21 35 -29 -5 47 -44 82
-15 15 -38 32 -50 38 -32 16 -95 13 -119 -7z"/>
<path d="M505 4935 c-8 -64 1 -86 21 -57 14 21 9 112 -6 112 -4 0 -11 -25 -15
-55z"/>
<path d="M2210 4974 c-30 -14 -32 -17 -16 -23 15 -6 10 -10 -25 -24 -49 -19
-49 -31 1 -17 47 14 49 5 3 -20 l-38 -21 50 4 50 4 -37 -17 c-60 -27 -57 -33
12 -26 72 6 66 -9 -7 -20 -65 -10 -51 -24 25 -25 80 -1 50 -16 -38 -18 -75 -2
-45 -19 52 -29 l73 -8 -66 -12 c-36 -7 -81 -12 -99 -12 -47 0 -33 -8 41 -25
l64 -13 -65 -2 c-59 -1 -63 -2 -46 -15 11 -8 43 -15 70 -16 l51 -1 -35 -13
-35 -13 28 -7 c15 -4 42 -5 60 -2 31 6 31 5 -8 -13 l-40 -19 38 0 c72 -2 139
48 176 129 49 107 0 228 -111 274 -47 20 -83 20 -128 0z"/>
<path d="M683 4868 c-33 -36 -43 -63 -43 -113 0 -53 19 -95 56 -124 31 -24 59
-26 94 -6 22 13 23 14 5 15 -15 1 -10 5 15 17 34 16 34 17 10 21 -23 4 -23 5
10 20 l35 15 -35 7 c-22 5 -27 8 -13 9 38 2 35 20 -4 26 -58 10 -63 15 -11 11
49 -4 55 7 14 25 -18 8 -16 9 9 4 29 -5 29 -5 10 11 -11 8 -19 19 -18 24 1 4
-9 20 -22 34 -31 34 -83 35 -112 4z"/>
<path d="M529 4854 c-22 -26 -16 -250 7 -275 9 -10 20 -17 24 -14 4 2 10 36
13 76 3 39 12 81 20 93 13 19 13 25 1 41 -8 11 -19 36 -25 57 -11 42 -20 46
-40 22z"/>
<path d="M486 4825 c-16 -38 -18 -188 -4 -235 14 -44 36 -55 30 -15 -1 11 -3
54 -3 95 1 101 -12 182 -23 155z"/>
<path d="M600 4720 c-6 -11 -16 -68 -22 -128 -13 -126 -5 -156 52 -184 29 -15
43 -16 75 -7 52 14 117 82 139 145 21 61 21 80 2 62 -8 -7 -11 -17 -8 -23 3
-5 1 -7 -3 -2 -5 4 -20 -3 -34 -15 l-26 -23 21 25 c28 33 47 70 40 78 -3 3 -6
1 -6 -5 0 -6 -11 -22 -25 -36 -21 -21 -31 -24 -58 -17 -18 4 -42 12 -55 19
-25 13 -62 80 -62 111 0 26 -16 26 -30 0z"/>
<path d="M526 4543 c-3 -4 -6 -28 -6 -55 0 -39 5 -54 25 -73 22 -23 55 -34 55
-18 0 3 -7 15 -16 25 -10 10 -19 40 -22 67 -4 45 -20 69 -36 54z"/>
<path d="M1050 4460 l-65 -41 40 37 c40 36 33 37 -17 2 -24 -17 -27 -17 -21
-2 5 14 3 15 -14 6 -11 -6 -26 -18 -33 -27 -7 -9 -28 -22 -46 -30 -35 -15 -98
-93 -137 -171 -53 -105 -83 -224 -56 -224 6 0 63 28 127 63 114 61 252 172
252 202 0 7 7 18 15 25 9 7 13 15 10 18 -3 3 2 14 12 24 25 28 8 21 -34 -13
-21 -17 -14 -8 16 20 30 28 50 51 43 51 -6 0 -14 -4 -17 -10 -3 -5 -11 -10
-16 -10 -6 0 -7 5 -3 12 4 7 3 8 -5 4 -6 -4 -9 -11 -6 -15 2 -5 -8 -19 -23
-32 l-27 -24 24 28 c32 36 18 34 -30 -4 -21 -17 -39 -28 -39 -25 0 3 34 33 76
66 41 33 70 60 63 60 -8 0 -8 4 1 15 11 13 10 14 -6 9 -10 -4 -23 -10 -29 -14
-28 -19 -105 -60 -105 -57 0 3 29 24 65 47 36 23 65 44 65 46 0 10 -20 1 -80
-36z m80 -14 c0 -2 -17 -14 -37 -25 l-38 -21 30 25 c28 23 45 31 45 21z m-140
-130 c0 -2 -8 -10 -17 -17 -16 -13 -17 -12 -4 4 13 16 21 21 21 13z"/>
<path d="M1220 4116 c0 -2 8 -10 18 -17 15 -13 16 -12 3 4 -13 16 -21 21 -21
13z"/>
<path d="M984 3874 c-15 -13 -30 -21 -32 -19 -8 7 -63 -43 -102 -93 -47 -59
-105 -161 -96 -169 12 -12 154 28 198 56 47 30 83 78 92 124 3 15 8 38 11 52
4 19 2 23 -10 19 -8 -3 -12 -11 -8 -17 3 -6 1 -7 -6 -3 -6 4 -9 12 -5 17 11
19 11 56 -1 56 -6 0 -25 -11 -41 -23z m26 -37 c0 -2 -10 -12 -22 -23 l-23 -19
19 23 c18 21 26 27 26 19z m6 -39 c4 -7 4 -10 -1 -6 -4 4 -15 2 -24 -5 -14
-11 -14 -10 -2 6 16 20 18 21 27 5z"/>
<path d="M4260 5630 c-24 -28 -39 -55 -34 -59 11 -9 95 -34 100 -29 4 5 -13
129 -19 134 -3 3 -24 -18 -47 -46z"/>
<path d="M4827 5386 c-26 -18 -50 -36 -53 -39 -5 -5 78 -67 90 -67 2 0 7 12
10 28 14 72 17 112 9 111 -4 0 -30 -15 -56 -33z"/>
<path d="M5435 4828 c-22 -5 -46 -11 -53 -14 -9 -3 -4 -17 18 -49 17 -25 35
-45 39 -45 6 0 54 77 69 112 5 10 -22 9 -73 -4z"/>
<path d="M5627 4534 l-48 -25 27 -50 c31 -57 61 -70 99 -45 17 11 25 26 25 46
0 35 -29 100 -44 100 -6 -1 -33 -12 -59 -26z"/>
<path d="M5680 4251 c0 -16 32 -101 38 -101 11 1 107 88 102 93 -10 8 -140 16
-140 8z"/>
<path d="M5810 3529 c0 -32 3 -59 6 -59 13 0 124 53 124 59 0 3 -29 18 -65 33
l-65 27 0 -60z"/>
<path d="M1311 3373 l-83 -4 4 -66 c4 -59 7 -69 36 -94 35 -31 74 -37 117 -17
38 17 55 58 55 128 0 56 -1 60 -22 58 -13 -1 -61 -4 -107 -5z"/>
<path d="M5814 3274 c-9 -62 9 -98 52 -102 42 -4 66 25 72 88 5 50 5 50 -25
50 -17 0 -44 3 -61 6 -30 6 -31 5 -38 -42z"/>
<path d="M5357 2122 c-15 -9 -37 -36 -49 -60 -57 -119 31 -267 138 -232 19 7
33 17 31 23 -2 7 5 18 17 25 20 12 19 13 -9 7 l-30 -6 25 22 25 21 -29 -5 -30
-5 25 20 24 20 -35 -5 -35 -6 35 17 35 16 -40 7 c-26 4 -31 7 -15 8 14 1 32 6
40 11 11 7 -1 10 -40 10 -65 0 -52 15 23 25 51 7 49 23 -3 26 -20 1 -18 3 10
9 l35 7 -27 11 c-16 6 -28 16 -28 22 0 5 -12 10 -27 11 -25 0 -26 1 -8 9 18 8
18 9 -5 9 -14 0 -38 -7 -53 -17z"/>
<path d="M6020 1185 c-14 -8 -38 -15 -55 -15 -27 0 -32 -5 -46 -51 l-16 -51
25 -11 c21 -10 27 -8 51 19 14 17 38 38 54 48 20 12 27 25 27 46 0 34 -4 35
-40 15z"/>
<path d="M5881 1025 c-25 -42 -7 -48 35 -11 28 23 28 23 7 34 -19 10 -24 8
-42 -23z"/>
<path d="M2074 1784 l-38 -46 37 -34 c58 -54 127 -39 127 28 0 24 -62 98 -82
98 -3 0 -24 -21 -44 -46z"/>
<path d="M4668 1565 l-37 -25 32 -54 32 -54 29 15 c70 36 96 92 58 126 -27 24
-72 21 -114 -8z"/>
<path d="M2562 1400 c-23 -50 -42 -93 -42 -96 0 -12 88 -44 123 -44 29 0 46 7
68 29 55 56 36 136 -41 176 -64 32 -64 33 -108 -65z"/>
<path d="M4198 1358 c-21 -5 -38 -15 -38 -22 0 -11 30 -107 35 -114 1 -1 28 7
59 18 64 24 80 54 55 99 -17 30 -52 35 -111 19z"/>
<path d="M3920 1293 c-8 -3 -27 -17 -42 -31 -50 -46 -34 -137 29 -167 45 -21
92 -13 127 22 21 20 26 35 26 72 0 25 -6 53 -13 61 -32 42 -83 59 -127 43z"/>
</g>
</svg>
